<svg height="512pt" viewBox="0 0 512 512" width="512pt" xmlns="http://www.w3.org/2000/svg"><path d="m89.226562 151.453125-7.527343-1.171875c-29.371094-4.585938-50.699219-29.515625-50.699219-59.28125 0-33.089844 26.910156-60 60-60 29.765625 0 54.695312 21.328125 59.28125 50.699219l1.171875 7.527343zm0 0" fill="#575f64"/><path d="m421 481c-29.765625 0-54.695312-21.328125-59.28125-50.699219l-1.171875-7.527343 62.226563-62.226563 7.527343 1.171875c29.371094 4.585938 50.699219 29.515625 50.699219 59.28125 0 33.089844-26.910156 60-60 60zm0 0" fill="#32393f"/><path d="m61 256h-30v240h120v-67.644531zm0 0" fill="#bbdcff"/><path d="m256 31c-124.199219 0-225 100.800781-225 225s100.800781 225 225 225 225-100.800781 225-225-100.800781-225-225-225zm0 0" fill="#e0f4ff"/><path d="m481 256c0 124.199219-100.800781 225-225 225v-450c124.199219 0 225 100.800781 225 225zm0 0" fill="#9abadb"/><path d="m376 256c0 66.300781-53.699219 120-120 120s-120-53.699219-120-120 53.699219-120 120-120 120 53.699219 120 120zm0 0" fill="#575f64"/><path d="m0 481h181v31h-181zm0 0" fill="#7c8388"/><path d="m256 31h234.375v120h-234.375zm0 0" fill="#bbdcff"/><path d="m376 256c0 66.300781-53.699219 120-120 120v-240c66.300781 0 120 53.699219 120 120zm0 0" fill="#32393f"/><path d="m481 0h31v181h-31zm0 0" fill="#575f64"/><path d="m256 121c-74.398438 0-135 60.597656-135 135 0 74.398438 60.601562 135 135 135s135-60.601562 135-135c0-74.402344-60.601562-135-135-135zm31.199219 117.597656-2.699219 29.703125c27 2.699219 49.5 21 58.5 46.199219-13.199219 19.5-32.699219 33.898438-55.800781 41.101562 11.101562-25.503906 11.699219-54.902343-.296875-81.300781l-27.300782 12.597657c9.296876 20.699218 7.5 44.101562-3.601562 63.300781-2.101562 3.601562-4.199219 6.898437-6.898438 10.199219-24.902343-1.800782-47.402343-11.699219-64.5-27.898438 27.898438-3 54-17.101562 70.796876-40.800781l-24.296876-17.101563c-15.601562 21.601563-42.601562 32.402344-68.703124 28.203125-6.898438-14.101562-11.398438-30-11.398438-46.800781 0-8.101562 1.199219-15.601562 2.699219-23.101562 16.800781 22.5 42.300781 37.800781 71.101562 40.5l2.699219-29.699219c-27-2.699219-49.5-21-58.5-46.199219 13.199219-19.503906 32.699219-33.902344 55.800781-41.101562-11.101562 25.5-11.699219 54.902343.296875 81.300781l27.300782-12.601563c-9.296876-20.699218-7.5-44.097656 3.601562-63.296875 2.101562-3.601562 4.199219-6.902343 6.898438-10.203125 24.601562 1.800782 46.800781 11.699219 63.902343 27.601563-27.601562 3-53.699219 17.398437-70.199219 41.101562l24.296876 17.097657c15.601562-21.597657 42.300781-32.398438 68.703124-28.199219 6.898438 14.101562 11.398438 30 11.398438 46.800781 0 8.097656-1.199219 15.597656-2.699219 23.097656-16.800781-22.5-42.300781-37.796875-71.101562-40.5zm0 0" fill="#7c8388"/><path d="m391 256c0 74.398438-60.601562 135-135 135v-40.800781c11.101562-19.199219 12.898438-42.601563 3.601562-63.300781l27.300782-12.597657c11.996094 26.398438 11.398437 55.800781.296875 81.300781 23.101562-7.203124 42.601562-21.601562 55.800781-41.101562-9-25.199219-31.5-43.5-58.5-46.199219l2.699219-29.699219c28.800781 2.699219 54.300781 17.996094 71.101562 40.496094 1.5-7.5 2.699219-15 2.699219-23.097656 0-16.800781-4.5-32.699219-11.398438-46.800781-26.402343-4.199219-53.101562 6.601562-68.699218 28.199219l-24.300782-17.097657c16.5-23.703125 42.597657-38.101562 70.199219-41.101562-17.101562-15.898438-39.300781-25.800781-63.902343-27.601563-2.699219 3.300782-4.796876 6.601563-6.898438 10.203125v-40.800781c74.398438 0 135 60.597656 135 135zm0 0" fill="#575f64"/><path d="m256 211c-24.902344 0-45 20.097656-45 45 0 24.898438 20.097656 45 45 45s45-20.101562 45-45c0-24.902344-20.097656-45-45-45zm0 0" fill="#7c8388"/><path d="m301 256c0 24.898438-20.097656 45-45 45v-90c24.902344 0 45 20.097656 45 45zm0 0" fill="#575f64"/></svg>