<svg height="512pt" viewBox="0 0 512.00022 512" width="512pt" xmlns="http://www.w3.org/2000/svg"><path d="m363.972656 450.964844-35.398437 54.394531c-3 4.199219-7.5 6.601563-12.597657 6.601563h-300.976562c-8.402344 0-15-6.601563-15-15v-45.996094l30.996094-29.996094h299.980468zm0 0" fill="#ff641a"/><path d="m330.976562 420.96875 32.996094 29.996094-35.398437 54.394531c-3 4.199219-7.5 6.601563-12.597657 6.601563h-59.996093v-90.992188zm0 0" fill="#f03800"/><path d="m509.558594 233.382812-45.695313 66.59375-42.894531 30h-389.972656l-30.996094-30v-284.976562c0-8.402344 6.597656-15 15-15h330.972656c4.800782 0 9.300782 2.398438 12.300782 6.296875l150.988281 209.984375c3.601562 5.101562 3.601562 11.699219.296875 17.101562zm0 0" fill="#ff641a"/><path d="m509.558594 233.382812-45.695313 66.59375-42.894531 30h-164.988281v-329.976562h89.992187c4.800782 0 9.300782 2.398438 12.300782 6.296875l150.988281 209.984375c3.601562 5.101562 3.601562 11.699219.296875 17.101562zm0 0" fill="#f03800"/><path d="m463.863281 299.976562-99.890625 150.988282h-363.972656v-150.988282h210.984375l29.996094 30h89.996093l29.996094-30zm0 0" fill="#f03800"/><path d="m463.863281 299.976562-99.890625 150.988282h-107.992187v-120.988282h74.996093l29.996094-30zm0 0" fill="#ae2538"/><path d="m403.871094 215.683594c-7.800782 15-23.101563 24.296875-39.898438 24.296875h-161.6875l3.898438-29.996094-46.496094 29.996094h-77.394531l17.398437-42.597657-38.695312 21.300782v-143.6875c0-8.402344 6.597656-15 15-15h143.6875l-13.800782 29.996094 50.097657-26.699219 6.300781-3.296875h52.792969c4.800781 0 9.300781 2.398437 12.300781 6.296875l2.402344 3.601562-21.300782 41.996094 38.996094-17.398437 53.097656 74.394531c9.898438 13.796875 11.097657 31.496093 3.300782 46.796875zm0 0" fill="#e0f4ff"/><g fill="#c5d3dd"><path d="m363.972656 239.980469h-107.992187v-176.683594l6.300781-3.300781h52.792969c4.800781 0 9.300781 2.398437 12.300781 6.296875l2.402344 3.601562-21.300782 41.996094 38.996094-17.398437 53.097656 74.394531c9.898438 13.796875 11.097657 31.5 3.300782 46.796875-7.800782 15-23.101563 24.296875-39.898438 24.296875zm0 0"/><path d="m262.28125 59.996094-6.300781 6.296875-173.6875 173.6875h-6.296875c-8.402344 0-15-6.597657-15-14.996094v-6.300781l158.6875-158.6875zm0 0"/><path d="m347.472656 94.492188-91.492187 91.792968-53.695313 53.695313h-42.597656l170.089844-170.085938zm0 0"/></g><path d="m262.28125 59.996094-6.300781 6.296875v-6.296875zm0 0" fill="#9facba"/><path d="m347.472656 94.492188-91.492187 91.792968v-42.597656l73.796875-73.792969zm0 0" fill="#9facba"/><path d="m360.972656 299.976562v15c0 24.898438-20.097656 44.996094-44.996094 44.996094h-59.996093c-24.898438 0-44.996094-20.097656-44.996094-44.996094v-15zm0 0" fill="#575f64"/><path d="m360.972656 299.976562v15c0 24.898438-20.097656 44.996094-44.996094 44.996094h-59.996093v-59.996094zm0 0" fill="#32393f"/></svg>